<?xml version="1.0" standalone="no"?>
<!DOCTYPE svg PUBLIC "-//W3C//DTD SVG 20010904//EN"
 "http://www.w3.org/TR/2001/REC-SVG-20010904/DTD/svg10.dtd">
<svg version="1.0" xmlns="http://www.w3.org/2000/svg"
 width="200.000000pt" height="200.000000pt" viewBox="0 0 200.000000 200.000000"
 preserveAspectRatio="xMidYMid meet">
<metadata>
Created by potrace 1.14, written by Peter Selinger 2001-2017
</metadata>
<g transform="translate(0.000000,200.000000) scale(0.100000,-0.100000)"
fill="#000000" stroke="none">
<path d="M221 1983 c-14 -9 -21 -11 -17 -5 5 8 2 10 -8 6 -9 -3 -13 -10 -10
-15 3 -5 -1 -6 -9 -4 -14 6 -117 -86 -117 -105 0 -6 -4 -8 -10 -5 -5 3 -10 0
-10 -7 0 -7 -7 -26 -15 -42 -8 -15 -12 -32 -9 -37 3 -5 0 -9 -5 -9 -8 0 -11
-235 -11 -770 1 -666 3 -772 15 -776 8 -4 12 -10 9 -15 -3 -5 0 -9 6 -9 6 0 8
-5 4 -12 -4 -6 1 -17 11 -25 11 -7 16 -13 12 -13 -4 0 9 -17 30 -38 20 -20 38
-35 39 -32 1 3 12 -6 24 -20 12 -14 19 -18 15 -10 -4 8 3 4 14 -9 12 -13 21
-18 21 -11 0 7 6 6 15 -4 14 -14 106 -15 794 -16 636 0 781 3 790 14 6 7 7 17
3 21 -4 5 -2 5 5 1 14 -8 64 14 57 25 -3 5 1 9 9 9 18 0 79 69 71 81 -3 5 0 8
8 7 7 -2 12 5 12 14 -1 10 2 15 7 12 5 -3 9 4 9 16 0 12 4 19 10 15 6 -4 9
280 10 780 0 454 -4 784 -9 781 -10 -7 -21 17 -21 44 0 11 -8 24 -17 29 -10 6
-15 11 -11 11 5 0 -9 17 -30 39 -40 41 -147 117 -122 86 14 -17 14 -18 -17 -2
-29 15 -104 17 -780 17 -684 0 -751 -1 -772 -17z m1016 -638 c0 -6 -5 -12 -11
-13 -32 -3 -47 -10 -61 -28 -13 -17 -14 -17 -15 -2 0 17 37 45 53 40 4 -1 7 2
7 6 0 5 6 9 13 9 8 0 14 -6 14 -12z m548 -1333 c-3 -3 -11 0 -18 7 -9 10 -8
11 6 5 10 -3 15 -9 12 -12z"/>
</g>
</svg>
